<svg height="1358" width="720" xmlns="http://www.w3.org/2000/svg">
<rect height="1358" fill="#555" width="720"></rect>
<text fill="#7f7" font-family="Courier New" font-size="12" xml:space="preserve">
<tspan x="10" y="26">11 megabytes installed</tspan>
<tspan x="10" y="42"></tspan>
<tspan x="10" y="58">node_modules</tspan>
<tspan x="10" y="74">└─┬ cpx@1.5.0 </tspan>
<tspan x="10" y="90">  ├─┬ babel-runtime@6.23.0 </tspan>
<tspan x="10" y="106">  │ ├── core-js@2.4.1 </tspan>
<tspan x="10" y="122">  │ └── regenerator-runtime@0.10.3 </tspan>
<tspan x="10" y="138">  ├─┬ chokidar@1.6.1 </tspan>
<tspan x="10" y="154">  │ ├─┬ anymatch@1.3.0 </tspan>
<tspan x="10" y="170">  │ │ ├── arrify@1.0.1 </tspan>
<tspan x="10" y="186">  │ │ └─┬ micromatch@2.3.11 </tspan>
<tspan x="10" y="202">  │ │   ├─┬ arr-diff@2.0.0 </tspan>
<tspan x="10" y="218">  │ │   │ └── arr-flatten@1.0.3 </tspan>
<tspan x="10" y="234">  │ │   ├── array-unique@0.2.1 </tspan>
<tspan x="10" y="250">  │ │   ├─┬ braces@1.8.5 </tspan>
<tspan x="10" y="266">  │ │   │ ├─┬ expand-range@1.8.2 </tspan>
<tspan x="10" y="282">  │ │   │ │ └─┬ fill-range@2.2.3 </tspan>
<tspan x="10" y="298">  │ │   │ │   ├── is-number@2.1.0 </tspan>
<tspan x="10" y="314">  │ │   │ │   ├── isobject@2.1.0 </tspan>
<tspan x="10" y="330">  │ │   │ │   ├── randomatic@1.1.6 </tspan>
<tspan x="10" y="346">  │ │   │ │   └── repeat-string@1.6.1 </tspan>
<tspan x="10" y="362">  │ │   │ ├── preserve@0.2.0 </tspan>
<tspan x="10" y="378">  │ │   │ └── repeat-element@1.1.2 </tspan>
<tspan x="10" y="394">  │ │   ├─┬ expand-brackets@0.1.5 </tspan>
<tspan x="10" y="410">  │ │   │ └── is-posix-bracket@0.1.1 </tspan>
<tspan x="10" y="426">  │ │   ├── extglob@0.3.2 </tspan>
<tspan x="10" y="442">  │ │   ├── filename-regex@2.0.0 </tspan>
<tspan x="10" y="458">  │ │   ├─┬ kind-of@3.1.0 </tspan>
<tspan x="10" y="474">  │ │   │ └── is-buffer@1.1.5 </tspan>
<tspan x="10" y="490">  │ │   ├─┬ normalize-path@2.1.1 </tspan>
<tspan x="10" y="506">  │ │   │ └── remove-trailing-separator@1.0.1 </tspan>
<tspan x="10" y="522">  │ │   ├─┬ object.omit@2.0.1 </tspan>
<tspan x="10" y="538">  │ │   │ ├─┬ for-own@0.1.5 </tspan>
<tspan x="10" y="554">  │ │   │ │ └── for-in@1.0.2 </tspan>
<tspan x="10" y="570">  │ │   │ └── is-extendable@0.1.1 </tspan>
<tspan x="10" y="586">  │ │   ├─┬ parse-glob@3.0.4 </tspan>
<tspan x="10" y="602">  │ │   │ ├── glob-base@0.3.0 </tspan>
<tspan x="10" y="618">  │ │   │ └── is-dotfile@1.0.2 </tspan>
<tspan x="10" y="634">  │ │   └─┬ regex-cache@0.4.3 </tspan>
<tspan x="10" y="650">  │ │     ├── is-equal-shallow@0.1.3 </tspan>
<tspan x="10" y="666">  │ │     └── is-primitive@2.0.0 </tspan>
<tspan x="10" y="682">  │ ├── async-each@1.0.1 </tspan>
<tspan x="10" y="698">  │ ├── glob-parent@2.0.0 </tspan>
<tspan x="10" y="714">  │ ├── inherits@2.0.3 </tspan>
<tspan x="10" y="730">  │ ├─┬ is-binary-path@1.0.1 </tspan>
<tspan x="10" y="746">  │ │ └── binary-extensions@1.8.0 </tspan>
<tspan x="10" y="762">  │ ├─┬ is-glob@2.0.1 </tspan>
<tspan x="10" y="778">  │ │ └── is-extglob@1.0.0 </tspan>
<tspan x="10" y="794">  │ ├── path-is-absolute@1.0.1 </tspan>
<tspan x="10" y="810">  │ └─┬ readdirp@2.1.0 </tspan>
<tspan x="10" y="826">  │   ├── graceful-fs@4.1.11 </tspan>
<tspan x="10" y="842">  │   ├─┬ readable-stream@2.2.9 </tspan>
<tspan x="10" y="858">  │   │ ├── buffer-shims@1.0.0 </tspan>
<tspan x="10" y="874">  │   │ ├── core-util-is@1.0.2 </tspan>
<tspan x="10" y="890">  │   │ ├── isarray@1.0.0 </tspan>
<tspan x="10" y="906">  │   │ ├── process-nextick-args@1.0.7 </tspan>
<tspan x="10" y="922">  │   │ ├── string_decoder@1.0.0 </tspan>
<tspan x="10" y="938">  │   │ └── util-deprecate@1.0.2 </tspan>
<tspan x="10" y="954">  │   └── set-immediate-shim@1.0.1 </tspan>
<tspan x="10" y="970">  ├── duplexer@0.1.1 </tspan>
<tspan x="10" y="986">  ├─┬ glob@7.1.1 </tspan>
<tspan x="10" y="1002">  │ ├── fs.realpath@1.0.0 </tspan>
<tspan x="10" y="1018">  │ ├─┬ inflight@1.0.6 </tspan>
<tspan x="10" y="1034">  │ │ └── wrappy@1.0.2 </tspan>
<tspan x="10" y="1050">  │ └── once@1.4.0 </tspan>
<tspan x="10" y="1066">  ├─┬ glob2base@0.0.12 </tspan>
<tspan x="10" y="1082">  │ └── find-index@0.1.1 </tspan>
<tspan x="10" y="1098">  ├─┬ minimatch@3.0.3 </tspan>
<tspan x="10" y="1114">  │ └─┬ brace-expansion@1.1.7 </tspan>
<tspan x="10" y="1130">  │   ├── balanced-match@0.4.2 </tspan>
<tspan x="10" y="1146">  │   └── concat-map@0.0.1 </tspan>
<tspan x="10" y="1162">  ├─┬ mkdirp@0.5.1 </tspan>
<tspan x="10" y="1178">  │ └── minimist@0.0.8 </tspan>
<tspan x="10" y="1194">  ├─┬ resolve@1.3.3 </tspan>
<tspan x="10" y="1210">  │ └── path-parse@1.0.5 </tspan>
<tspan x="10" y="1226">  ├── safe-buffer@5.0.1 </tspan>
<tspan x="10" y="1242">  ├─┬ shell-quote@1.6.1 </tspan>
<tspan x="10" y="1258">  │ ├── array-filter@0.0.1 </tspan>
<tspan x="10" y="1274">  │ ├── array-map@0.0.0 </tspan>
<tspan x="10" y="1290">  │ ├── array-reduce@0.0.0 </tspan>
<tspan x="10" y="1306">  │ └── jsonify@0.0.0 </tspan>
<tspan x="10" y="1322">  └─┬ subarg@1.0.0 </tspan>
<tspan x="10" y="1338">    └── minimist@1.2.0</tspan>
</text>
</svg>
